<svg id="visual" viewBox="0 0 960 540" width="960" height="540" xmlns="http://www.w3.org/2000/svg" xmlns:xlink="http://www.w3.org/1999/xlink" version="1.1"><rect width="960" height="540" fill="#290025"></rect><g><g transform="translate(246 244)"><path d="M0 -12.8L12.2 -4L7.6 10.4L-7.6 10.4L-12.2 -4Z" fill="#a62988"></path></g><g transform="translate(513 159)"><path d="M0 -9L8.6 -2.8L5.3 7.3L-5.3 7.3L-8.6 -2.8Z" fill="#a62988"></path></g><g transform="translate(341 145)"><path d="M0 -11L10.5 -3.4L6.5 8.9L-6.5 8.9L-10.5 -3.4Z" fill="#a62988"></path></g><g transform="translate(913 106)"><path d="M0 -6L5.7 -1.9L3.5 4.9L-3.5 4.9L-5.7 -1.9Z" fill="#a62988"></path></g><g transform="translate(31 313)"><path d="M0 -7L6.7 -2.2L4.1 5.7L-4.1 5.7L-6.7 -2.2Z" fill="#a62988"></path></g><g transform="translate(519 245)"><path d="M0 -10L9.5 -3.1L5.9 8.1L-5.9 8.1L-9.5 -3.1Z" fill="#a62988"></path></g><g transform="translate(19 288)"><path d="M0 -7L6.7 -2.2L4.1 5.7L-4.1 5.7L-6.7 -2.2Z" fill="#a62988"></path></g><g transform="translate(755 250)"><path d="M0 -7L6.7 -2.2L4.1 5.7L-4.1 5.7L-6.7 -2.2Z" fill="#a62988"></path></g><g transform="translate(798 112)"><path d="M0 -10L9.5 -3.1L5.9 8.1L-5.9 8.1L-9.5 -3.1Z" fill="#a62988"></path></g><g transform="translate(540 185)"><path d="M0 -6L5.7 -1.9L3.5 4.9L-3.5 4.9L-5.7 -1.9Z" fill="#a62988"></path></g><g transform="translate(869 334)"><path d="M0 -7L6.7 -2.2L4.1 5.7L-4.1 5.7L-6.7 -2.2Z" fill="#a62988"></path></g><g transform="translate(888 114)"><path d="M0 -6L5.7 -1.9L3.5 4.9L-3.5 4.9L-5.7 -1.9Z" fill="#a62988"></path></g><g transform="translate(110 280)"><path d="M0 -9L8.6 -2.8L5.3 7.3L-5.3 7.3L-8.6 -2.8Z" fill="#a62988"></path></g><g transform="translate(417 482)"><path d="M0 -7L6.7 -2.2L4.1 5.7L-4.1 5.7L-6.7 -2.2Z" fill="#a62988"></path></g><g transform="translate(222 495)"><path d="M0 -6L5.7 -1.9L3.5 4.9L-3.5 4.9L-5.7 -1.9Z" fill="#a62988"></path></g><g transform="translate(300 217)"><path d="M0 -6L5.7 -1.9L3.5 4.9L-3.5 4.9L-5.7 -1.9Z" fill="#a62988"></path></g><g transform="translate(401 20)"><path d="M0 -9L8.6 -2.8L5.3 7.3L-5.3 7.3L-8.6 -2.8Z" fill="#a62988"></path></g><g transform="translate(130 484)"><path d="M0 -9L8.6 -2.8L5.3 7.3L-5.3 7.3L-8.6 -2.8Z" fill="#a62988"></path></g><g transform="translate(9 151)"><path d="M0 -11L10.5 -3.4L6.5 8.9L-6.5 8.9L-10.5 -3.4Z" fill="#a62988"></path></g><g transform="translate(457 274)"><path d="M0 -10L9.5 -3.1L5.9 8.1L-5.9 8.1L-9.5 -3.1Z" fill="#a62988"></path></g><g transform="translate(540 288)"><path d="M0 -8L7.6 -2.5L4.7 6.5L-4.7 6.5L-7.6 -2.5Z" fill="#a62988"></path></g><g transform="translate(231 63)"><path d="M0 -11L10.5 -3.4L6.5 8.9L-6.5 8.9L-10.5 -3.4Z" fill="#a62988"></path></g><g transform="translate(947 253)"><path d="M0 -9L8.6 -2.8L5.3 7.3L-5.3 7.3L-8.6 -2.8Z" fill="#a62988"></path></g><g transform="translate(598 512)"><path d="M0 -9L8.6 -2.8L5.3 7.3L-5.3 7.3L-8.6 -2.8Z" fill="#a62988"></path></g><g transform="translate(561 362)"><path d="M0 -10L9.5 -3.1L5.9 8.1L-5.9 8.1L-9.5 -3.1Z" fill="#a62988"></path></g><g transform="translate(71 423)"><path d="M0 -11L10.5 -3.4L6.5 8.9L-6.5 8.9L-10.5 -3.4Z" fill="#a62988"></path></g><g transform="translate(343 283)"><path d="M0 -11L10.5 -3.4L6.5 8.9L-6.5 8.9L-10.5 -3.4Z" fill="#a62988"></path></g><g transform="translate(471 499)"><path d="M0 -11L10.5 -3.4L6.5 8.9L-6.5 8.9L-10.5 -3.4Z" fill="#a62988"></path></g><g transform="translate(2 187)"><path d="M0 -6L5.7 -1.9L3.5 4.9L-3.5 4.9L-5.7 -1.9Z" fill="#a62988"></path></g><g transform="translate(450 38)"><path d="M0 -10L9.5 -3.1L5.9 8.1L-5.9 8.1L-9.5 -3.1Z" fill="#a62988"></path></g><g transform="translate(168 268)"><path d="M0 -8L7.6 -2.5L4.7 6.5L-4.7 6.5L-7.6 -2.5Z" fill="#a62988"></path></g><g transform="translate(242 528)"><path d="M0 -9L8.6 -2.8L5.3 7.3L-5.3 7.3L-8.6 -2.8Z" fill="#a62988"></path></g><g transform="translate(598 167)"><path d="M0 -7L6.7 -2.2L4.1 5.7L-4.1 5.7L-6.7 -2.2Z" fill="#a62988"></path></g><g transform="translate(697 269)"><path d="M0 -10L9.5 -3.1L5.9 8.1L-5.9 8.1L-9.5 -3.1Z" fill="#a62988"></path></g><g transform="translate(697 201)"><path d="M0 -11L10.5 -3.4L6.5 8.9L-6.5 8.9L-10.5 -3.4Z" fill="#a62988"></path></g><g transform="translate(256 396)"><path d="M0 -7L6.7 -2.2L4.1 5.7L-4.1 5.7L-6.7 -2.2Z" fill="#a62988"></path></g><g transform="translate(823 478)"><path d="M0 -6L5.7 -1.9L3.5 4.9L-3.5 4.9L-5.7 -1.9Z" fill="#a62988"></path></g><g transform="translate(768 214)"><path d="M0 -9L8.6 -2.8L5.3 7.3L-5.3 7.3L-8.6 -2.8Z" fill="#a62988"></path></g><g transform="translate(711 308)"><path d="M0 -8L7.6 -2.5L4.7 6.5L-4.7 6.5L-7.6 -2.5Z" fill="#a62988"></path></g><g transform="translate(583 236)"><path d="M0 -10L9.5 -3.1L5.9 8.1L-5.9 8.1L-9.5 -3.1Z" fill="#a62988"></path></g><g transform="translate(102 530)"><path d="M0 -6L5.7 -1.9L3.5 4.9L-3.5 4.9L-5.7 -1.9Z" fill="#a62988"></path></g><g transform="translate(104 439)"><path d="M0 -8L7.6 -2.5L4.7 6.5L-4.7 6.5L-7.6 -2.5Z" fill="#a62988"></path></g><g transform="translate(478 124)"><path d="M0 -7L6.7 -2.2L4.1 5.7L-4.1 5.7L-6.7 -2.2Z" fill="#a62988"></path></g><g transform="translate(188 170)"><path d="M0 -11L10.5 -3.4L6.5 8.9L-6.5 8.9L-10.5 -3.4Z" fill="#a62988"></path></g><g transform="translate(906 522)"><path d="M0 -10L9.5 -3.1L5.9 8.1L-5.9 8.1L-9.5 -3.1Z" fill="#a62988"></path></g><g transform="translate(613 441)"><path d="M0 -11L10.5 -3.4L6.5 8.9L-6.5 8.9L-10.5 -3.4Z" fill="#a62988"></path></g><g transform="translate(333 398)"><path d="M0 -8L7.6 -2.5L4.7 6.5L-4.7 6.5L-7.6 -2.5Z" fill="#a62988"></path></g><g transform="translate(908 312)"><path d="M0 -10L9.5 -3.1L5.9 8.1L-5.9 8.1L-9.5 -3.1Z" fill="#a62988"></path></g><g transform="translate(456 149)"><path d="M0 -6L5.7 -1.9L3.5 4.9L-3.5 4.9L-5.7 -1.9Z" fill="#a62988"></path></g><g transform="translate(221 12)"><path d="M0 -8L7.6 -2.5L4.7 6.5L-4.7 6.5L-7.6 -2.5Z" fill="#a62988"></path></g><g transform="translate(497 16)"><path d="M0 -6L5.7 -1.9L3.5 4.9L-3.5 4.9L-5.7 -1.9Z" fill="#a62988"></path></g><g transform="translate(42 2)"><path d="M0 -6L5.7 -1.9L3.5 4.9L-3.5 4.9L-5.7 -1.9Z" fill="#a62988"></path></g><g transform="translate(696 355)"><path d="M0 -6L5.7 -1.9L3.5 4.9L-3.5 4.9L-5.7 -1.9Z" fill="#a62988"></path></g><g transform="translate(299 110)"><path d="M0 -9L8.6 -2.8L5.3 7.3L-5.3 7.3L-8.6 -2.8Z" fill="#a62988"></path></g><g transform="translate(921 54)"><path d="M0 -7L6.7 -2.2L4.1 5.7L-4.1 5.7L-6.7 -2.2Z" fill="#a62988"></path></g><g transform="translate(363 482)"><path d="M0 -7L6.7 -2.2L4.1 5.7L-4.1 5.7L-6.7 -2.2Z" fill="#a62988"></path></g><g transform="translate(270 126)"><path d="M0 -11L10.5 -3.4L6.5 8.9L-6.5 8.9L-10.5 -3.4Z" fill="#a62988"></path></g><g transform="translate(323 493)"><path d="M0 -9L8.6 -2.8L5.3 7.3L-5.3 7.3L-8.6 -2.8Z" fill="#a62988"></path></g><g transform="translate(666 60)"><path d="M0 -11L10.5 -3.4L6.5 8.9L-6.5 8.9L-10.5 -3.4Z" fill="#a62988"></path></g><g transform="translate(663 244)"><path d="M0 -11L10.5 -3.4L6.5 8.9L-6.5 8.9L-10.5 -3.4Z" fill="#a62988"></path></g><g transform="translate(633 57)"><path d="M0 -6L5.7 -1.9L3.5 4.9L-3.5 4.9L-5.7 -1.9Z" fill="#a62988"></path></g><g transform="translate(365 180)"><path d="M0 -8L7.6 -2.5L4.7 6.5L-4.7 6.5L-7.6 -2.5Z" fill="#a62988"></path></g><g transform="translate(944 16)"><path d="M0 -6L5.7 -1.9L3.5 4.9L-3.5 4.9L-5.7 -1.9Z" fill="#a62988"></path></g><g transform="translate(59 400)"><path d="M0 -11L10.5 -3.4L6.5 8.9L-6.5 8.9L-10.5 -3.4Z" fill="#a62988"></path></g><g transform="translate(872 307)"><path d="M0 -7L6.7 -2.2L4.1 5.7L-4.1 5.7L-6.7 -2.2Z" fill="#a62988"></path></g><g transform="translate(215 383)"><path d="M0 -7L6.7 -2.2L4.1 5.7L-4.1 5.7L-6.7 -2.2Z" fill="#a62988"></path></g><g transform="translate(233 307)"><path d="M0 -6L5.7 -1.9L3.5 4.9L-3.5 4.9L-5.7 -1.9Z" fill="#a62988"></path></g><g transform="translate(232 102)"><path d="M0 -6L5.7 -1.9L3.5 4.9L-3.5 4.9L-5.7 -1.9Z" fill="#a62988"></path></g><g transform="translate(50 216)"><path d="M0 -10L9.5 -3.1L5.9 8.1L-5.9 8.1L-9.5 -3.1Z" fill="#a62988"></path></g><g transform="translate(353 36)"><path d="M0 -6L5.7 -1.9L3.5 4.9L-3.5 4.9L-5.7 -1.9Z" fill="#a62988"></path></g><g transform="translate(936 139)"><path d="M0 -9L8.6 -2.8L5.3 7.3L-5.3 7.3L-8.6 -2.8Z" fill="#a62988"></path></g><g transform="translate(567 188)"><path d="M0 -9L8.6 -2.8L5.3 7.3L-5.3 7.3L-8.6 -2.8Z" fill="#a62988"></path></g><g transform="translate(682 138)"><path d="M0 -11L10.5 -3.4L6.5 8.9L-6.5 8.9L-10.5 -3.4Z" fill="#a62988"></path></g><g transform="translate(169 354)"><path d="M0 -10L9.5 -3.1L5.9 8.1L-5.9 8.1L-9.5 -3.1Z" fill="#a62988"></path></g><g transform="translate(533 317)"><path d="M0 -10L9.5 -3.1L5.9 8.1L-5.9 8.1L-9.5 -3.1Z" fill="#a62988"></path></g><g transform="translate(826 235)"><path d="M0 -6L5.7 -1.9L3.5 4.9L-3.5 4.9L-5.7 -1.9Z" fill="#a62988"></path></g><g transform="translate(500 76)"><path d="M0 -7L6.7 -2.2L4.1 5.7L-4.1 5.7L-6.7 -2.2Z" fill="#a62988"></path></g><g transform="translate(675 299)"><path d="M0 -10L9.5 -3.1L5.9 8.1L-5.9 8.1L-9.5 -3.1Z" fill="#a62988"></path></g><g transform="translate(567 421)"><path d="M0 -8L7.6 -2.5L4.7 6.5L-4.7 6.5L-7.6 -2.5Z" fill="#a62988"></path></g><g transform="translate(345 237)"><path d="M0 -9L8.6 -2.8L5.3 7.3L-5.3 7.3L-8.6 -2.8Z" fill="#a62988"></path></g><g transform="translate(540 261)"><path d="M0 -11L10.5 -3.4L6.5 8.9L-6.5 8.9L-10.5 -3.4Z" fill="#a62988"></path></g><g transform="translate(248 194)"><path d="M0 -6L5.7 -1.9L3.5 4.9L-3.5 4.9L-5.7 -1.9Z" fill="#a62988"></path></g><g transform="translate(261 324)"><path d="M0 -11L10.5 -3.4L6.5 8.9L-6.5 8.9L-10.5 -3.4Z" fill="#a62988"></path></g><g transform="translate(818 307)"><path d="M0 -10L9.5 -3.1L5.9 8.1L-5.9 8.1L-9.5 -3.1Z" fill="#a62988"></path></g><g transform="translate(99 55)"><path d="M0 -8L7.6 -2.5L4.7 6.5L-4.7 6.5L-7.6 -2.5Z" fill="#a62988"></path></g><g transform="translate(102 21)"><path d="M0 -7L6.7 -2.2L4.1 5.7L-4.1 5.7L-6.7 -2.2Z" fill="#a62988"></path></g><g transform="translate(754 449)"><path d="M0 -9L8.6 -2.8L5.3 7.3L-5.3 7.3L-8.6 -2.8Z" fill="#a62988"></path></g><g transform="translate(524 428)"><path d="M0 -10L9.5 -3.1L5.9 8.1L-5.9 8.1L-9.5 -3.1Z" fill="#a62988"></path></g><g transform="translate(803 451)"><path d="M0 -10L9.5 -3.1L5.9 8.1L-5.9 8.1L-9.5 -3.1Z" fill="#a62988"></path></g><g transform="translate(41 529)"><path d="M0 -8L7.6 -2.5L4.7 6.5L-4.7 6.5L-7.6 -2.5Z" fill="#a62988"></path></g><g transform="translate(60 100)"><path d="M0 -8L7.6 -2.5L4.7 6.5L-4.7 6.5L-7.6 -2.5Z" fill="#a62988"></path></g><g transform="translate(399 66)"><path d="M0 -6L5.7 -1.9L3.5 4.9L-3.5 4.9L-5.7 -1.9Z" fill="#a62988"></path></g><g transform="translate(239 356)"><path d="M0 -6L5.7 -1.9L3.5 4.9L-3.5 4.9L-5.7 -1.9Z" fill="#a62988"></path></g><g transform="translate(692 415)"><path d="M0 -10L9.5 -3.1L5.9 8.1L-5.9 8.1L-9.5 -3.1Z" fill="#a62988"></path></g><g transform="translate(850 165)"><path d="M0 -11L10.5 -3.4L6.5 8.9L-6.5 8.9L-10.5 -3.4Z" fill="#a62988"></path></g><g transform="translate(64 321)"><path d="M0 -10L9.5 -3.1L5.9 8.1L-5.9 8.1L-9.5 -3.1Z" fill="#a62988"></path></g><g transform="translate(275 516)"><path d="M0 -8L7.6 -2.5L4.7 6.5L-4.7 6.5L-7.6 -2.5Z" fill="#a62988"></path></g><g transform="translate(538 139)"><path d="M0 -7L6.7 -2.2L4.1 5.7L-4.1 5.7L-6.7 -2.2Z" fill="#a62988"></path></g><g transform="translate(404 204)"><path d="M0 -9L8.6 -2.8L5.3 7.3L-5.3 7.3L-8.6 -2.8Z" fill="#a62988"></path></g><g transform="translate(533 482)"><path d="M0 -8L7.6 -2.5L4.7 6.5L-4.7 6.5L-7.6 -2.5Z" fill="#a62988"></path></g><g transform="translate(791 141)"><path d="M0 -6L5.7 -1.9L3.5 4.9L-3.5 4.9L-5.7 -1.9Z" fill="#a62988"></path></g><g transform="translate(911 161)"><path d="M0 -9L8.6 -2.8L5.3 7.3L-5.3 7.3L-8.6 -2.8Z" fill="#a62988"></path></g><g transform="translate(227 132)"><path d="M0 -6L5.7 -1.9L3.5 4.9L-3.5 4.9L-5.7 -1.9Z" fill="#a62988"></path></g><g transform="translate(957 330)"><path d="M0 -6L5.7 -1.9L3.5 4.9L-3.5 4.9L-5.7 -1.9Z" fill="#a62988"></path></g><g transform="translate(878 239)"><path d="M0 -10L9.5 -3.1L5.9 8.1L-5.9 8.1L-9.5 -3.1Z" fill="#a62988"></path></g><g transform="translate(642 342)"><path d="M0 -9L8.6 -2.8L5.3 7.3L-5.3 7.3L-8.6 -2.8Z" fill="#a62988"></path></g><g transform="translate(706 155)"><path d="M0 -6L5.7 -1.9L3.5 4.9L-3.5 4.9L-5.7 -1.9Z" fill="#a62988"></path></g><g transform="translate(60 260)"><path d="M0 -9L8.6 -2.8L5.3 7.3L-5.3 7.3L-8.6 -2.8Z" fill="#a62988"></path></g><g transform="translate(271 452)"><path d="M0 -7L6.7 -2.2L4.1 5.7L-4.1 5.7L-6.7 -2.2Z" fill="#a62988"></path></g><g transform="translate(502 303)"><path d="M0 -11L10.5 -3.4L6.5 8.9L-6.5 8.9L-10.5 -3.4Z" fill="#a62988"></path></g><g transform="translate(646 184)"><path d="M0 -9L8.6 -2.8L5.3 7.3L-5.3 7.3L-8.6 -2.8Z" fill="#a62988"></path></g><g transform="translate(760 61)"><path d="M0 -6L5.7 -1.9L3.5 4.9L-3.5 4.9L-5.7 -1.9Z" fill="#a62988"></path></g><g transform="translate(734 177)"><path d="M0 -8L7.6 -2.5L4.7 6.5L-4.7 6.5L-7.6 -2.5Z" fill="#a62988"></path></g><g transform="translate(599 371)"><path d="M0 -10L9.5 -3.1L5.9 8.1L-5.9 8.1L-9.5 -3.1Z" fill="#a62988"></path></g><g transform="translate(413 445)"><path d="M0 -9L8.6 -2.8L5.3 7.3L-5.3 7.3L-8.6 -2.8Z" fill="#a62988"></path></g><g transform="translate(839 395)"><path d="M0 -7L6.7 -2.2L4.1 5.7L-4.1 5.7L-6.7 -2.2Z" fill="#a62988"></path></g><g transform="translate(819 66)"><path d="M0 -6L5.7 -1.9L3.5 4.9L-3.5 4.9L-5.7 -1.9Z" fill="#a62988"></path></g><g transform="translate(299 476)"><path d="M0 -8L7.6 -2.5L4.7 6.5L-4.7 6.5L-7.6 -2.5Z" fill="#a62988"></path></g><g transform="translate(235 217)"><path d="M0 -10L9.5 -3.1L5.9 8.1L-5.9 8.1L-9.5 -3.1Z" fill="#a62988"></path></g><g transform="translate(583 25)"><path d="M0 -9L8.6 -2.8L5.3 7.3L-5.3 7.3L-8.6 -2.8Z" fill="#a62988"></path></g><g transform="translate(915 362)"><path d="M0 -9L8.6 -2.8L5.3 7.3L-5.3 7.3L-8.6 -2.8Z" fill="#a62988"></path></g><g transform="translate(504 467)"><path d="M0 -9L8.6 -2.8L5.3 7.3L-5.3 7.3L-8.6 -2.8Z" fill="#a62988"></path></g><g transform="translate(589 475)"><path d="M0 -11L10.5 -3.4L6.5 8.9L-6.5 8.9L-10.5 -3.4Z" fill="#a62988"></path></g><g transform="translate(284 428)"><path d="M0 -8L7.6 -2.5L4.7 6.5L-4.7 6.5L-7.6 -2.5Z" fill="#a62988"></path></g><g transform="translate(87 459)"><path d="M0 -9L8.6 -2.8L5.3 7.3L-5.3 7.3L-8.6 -2.8Z" fill="#a62988"></path></g><g transform="translate(219 264)"><path d="M0 -8L7.6 -2.5L4.7 6.5L-4.7 6.5L-7.6 -2.5Z" fill="#a62988"></path></g><g transform="translate(6 228)"><path d="M0 -7L6.7 -2.2L4.1 5.7L-4.1 5.7L-6.7 -2.2Z" fill="#a62988"></path></g><g transform="translate(947 373)"><path d="M0 -7L6.7 -2.2L4.1 5.7L-4.1 5.7L-6.7 -2.2Z" fill="#a62988"></path></g><g transform="translate(921 418)"><path d="M0 -6L5.7 -1.9L3.5 4.9L-3.5 4.9L-5.7 -1.9Z" fill="#a62988"></path></g><g transform="translate(320 190)"><path d="M0 -9L8.6 -2.8L5.3 7.3L-5.3 7.3L-8.6 -2.8Z" fill="#a62988"></path></g><g transform="translate(598 1)"><path d="M0 -6L5.7 -1.9L3.5 4.9L-3.5 4.9L-5.7 -1.9Z" fill="#a62988"></path></g><g transform="translate(735 49)"><path d="M0 -9L8.6 -2.8L5.3 7.3L-5.3 7.3L-8.6 -2.8Z" fill="#a62988"></path></g><g transform="translate(16 372)"><path d="M0 -7L6.7 -2.2L4.1 5.7L-4.1 5.7L-6.7 -2.2Z" fill="#a62988"></path></g><g transform="translate(95 314)"><path d="M0 -9L8.6 -2.8L5.3 7.3L-5.3 7.3L-8.6 -2.8Z" fill="#a62988"></path></g><g transform="translate(796 255)"><path d="M0 -6L5.7 -1.9L3.5 4.9L-3.5 4.9L-5.7 -1.9Z" fill="#a62988"></path></g><g transform="translate(154 422)"><path d="M0 -10L9.5 -3.1L5.9 8.1L-5.9 8.1L-9.5 -3.1Z" fill="#a62988"></path></g><g transform="translate(776 12)"><path d="M0 -11L10.5 -3.4L6.5 8.9L-6.5 8.9L-10.5 -3.4Z" fill="#a62988"></path></g><g transform="translate(817 376)"><path d="M0 -6L5.7 -1.9L3.5 4.9L-3.5 4.9L-5.7 -1.9Z" fill="#a62988"></path></g><g transform="translate(874 279)"><path d="M0 -11L10.5 -3.4L6.5 8.9L-6.5 8.9L-10.5 -3.4Z" fill="#a62988"></path></g><g transform="translate(801 205)"><path d="M0 -7L6.7 -2.2L4.1 5.7L-4.1 5.7L-6.7 -2.2Z" fill="#a62988"></path></g><g transform="translate(157 297)"><path d="M0 -7L6.7 -2.2L4.1 5.7L-4.1 5.7L-6.7 -2.2Z" fill="#a62988"></path></g><g transform="translate(144 10)"><path d="M0 -10L9.5 -3.1L5.9 8.1L-5.9 8.1L-9.5 -3.1Z" fill="#a62988"></path></g><g transform="translate(824 335)"><path d="M0 -6L5.7 -1.9L3.5 4.9L-3.5 4.9L-5.7 -1.9Z" fill="#a62988"></path></g><g transform="translate(925 498)"><path d="M0 -9L8.6 -2.8L5.3 7.3L-5.3 7.3L-8.6 -2.8Z" fill="#a62988"></path></g><g transform="translate(47 174)"><path d="M0 -8L7.6 -2.5L4.7 6.5L-4.7 6.5L-7.6 -2.5Z" fill="#a62988"></path></g><g transform="translate(814 418)"><path d="M0 -8L7.6 -2.5L4.7 6.5L-4.7 6.5L-7.6 -2.5Z" fill="#a62988"></path></g><g transform="translate(458 461)"><path d="M0 -8L7.6 -2.5L4.7 6.5L-4.7 6.5L-7.6 -2.5Z" fill="#a62988"></path></g><g transform="translate(6 425)"><path d="M0 -8L7.6 -2.5L4.7 6.5L-4.7 6.5L-7.6 -2.5Z" fill="#a62988"></path></g><g transform="translate(255 87)"><path d="M0 -6L5.7 -1.9L3.5 4.9L-3.5 4.9L-5.7 -1.9Z" fill="#a62988"></path></g><g transform="translate(816 151)"><path d="M0 -6L5.7 -1.9L3.5 4.9L-3.5 4.9L-5.7 -1.9Z" fill="#a62988"></path></g><g transform="translate(945 456)"><path d="M0 -8L7.6 -2.5L4.7 6.5L-4.7 6.5L-7.6 -2.5Z" fill="#a62988"></path></g><g transform="translate(156 533)"><path d="M0 -7L6.7 -2.2L4.1 5.7L-4.1 5.7L-6.7 -2.2Z" fill="#a62988"></path></g><g transform="translate(440 178)"><path d="M0 -6L5.7 -1.9L3.5 4.9L-3.5 4.9L-5.7 -1.9Z" fill="#a62988"></path></g><g transform="translate(192 538)"><path d="M0 -9L8.6 -2.8L5.3 7.3L-5.3 7.3L-8.6 -2.8Z" fill="#a62988"></path></g><g transform="translate(455 413)"><path d="M0 -6L5.7 -1.9L3.5 4.9L-3.5 4.9L-5.7 -1.9Z" fill="#a62988"></path></g><g transform="translate(844 315)"><path d="M0 -9L8.6 -2.8L5.3 7.3L-5.3 7.3L-8.6 -2.8Z" fill="#a62988"></path></g><g transform="translate(649 85)"><path d="M0 -9L8.6 -2.8L5.3 7.3L-5.3 7.3L-8.6 -2.8Z" fill="#a62988"></path></g><g transform="translate(869 532)"><path d="M0 -7L6.7 -2.2L4.1 5.7L-4.1 5.7L-6.7 -2.2Z" fill="#a62988"></path></g><g transform="translate(722 374)"><path d="M0 -10L9.5 -3.1L5.9 8.1L-5.9 8.1L-9.5 -3.1Z" fill="#a62988"></path></g><g transform="translate(492 236)"><path d="M0 -10L9.5 -3.1L5.9 8.1L-5.9 8.1L-9.5 -3.1Z" fill="#a62988"></path></g><g transform="translate(212 460)"><path d="M0 -10L9.5 -3.1L5.9 8.1L-5.9 8.1L-9.5 -3.1Z" fill="#a62988"></path></g></g></svg>